<svg width="64" height="64" viewBox="0 0 64 64" fill="none" xmlns="http://www.w3.org/2000/svg">
<path d="M26.6667 45.3334V37.3334H8V26.6667H26.6667V18.6667L40 32L26.6667 45.3334ZM26.6667 5.33337H50.6667C52.0812 5.33337 53.4377 5.89528 54.4379 6.89547C55.4381 7.89566 56 9.25222 56 10.6667V53.3334C56 54.7479 55.4381 56.1044 54.4379 57.1046C53.4377 58.1048 52.0812 58.6667 50.6667 58.6667H26.6667C25.2522 58.6667 23.8956 58.1048 22.8954 57.1046C21.8952 56.1044 21.3333 54.7479 21.3333 53.3334V48H26.6667V53.3334H50.6667V10.6667H26.6667V16H21.3333V10.6667C21.3333 9.25222 21.8952 7.89566 22.8954 6.89547C23.8956 5.89528 25.2522 5.33337 26.6667 5.33337Z" fill="black"/>
</svg>
