<svg width="199" height="70" viewBox="0 0 199 70" fill="none" xmlns="http://www.w3.org/2000/svg">
<path d="M20.112 59.84C17.36 59.84 14.672 57.424 12.048 52.592C9.904 48.624 7.952 43.744 6.192 37.952C4.464 32.16 2.752 25.552 1.056 18.128L9.744 16.976C10.64 21.264 11.616 25.392 12.672 29.36C13.76 33.296 14.864 36.864 15.984 40.064C17.136 43.232 18.24 45.824 19.296 47.84C19.552 48.352 19.792 48.784 20.016 49.136C20.272 49.456 20.432 49.616 20.496 49.616C20.624 49.616 20.784 49.472 20.976 49.184C21.2 48.896 21.504 48.384 21.888 47.648C22.976 45.696 24.144 43.152 25.392 40.016C26.672 36.88 27.968 33.328 29.28 29.36C30.592 25.392 31.824 21.216 32.976 16.832L41.52 18.416C40.08 23.504 38.608 28.224 37.104 32.576C35.6 36.896 34.128 40.752 32.688 44.144C31.248 47.504 29.92 50.32 28.704 52.592C26.112 57.424 23.248 59.84 20.112 59.84ZM56.9614 59.792C54.5614 59.792 52.3854 59.168 50.4334 57.92C48.4814 56.704 46.9294 55.056 45.7774 52.976C44.6574 50.864 44.0974 48.512 44.0974 45.92C44.0974 43.488 44.5454 41.296 45.4414 39.344C46.3374 37.36 47.5534 35.664 49.0894 34.256C50.6574 32.848 52.4334 31.776 54.4174 31.04C56.4014 30.272 58.4814 29.888 60.6574 29.888C62.4814 29.888 64.2734 30.144 66.0334 30.656C66.1614 29.984 66.2734 29.312 66.3694 28.64L74.5774 30.032C74.3534 30.64 74.1294 31.552 73.9054 32.768C73.6814 33.984 73.4894 35.344 73.3294 36.848C73.2014 38.352 73.0894 39.856 72.9934 41.36C72.8974 42.864 72.8494 44.224 72.8494 45.44C72.8494 46.432 72.9134 47.408 73.0414 48.368C73.2014 49.296 73.5214 50.064 74.0014 50.672C74.4814 51.248 75.2174 51.536 76.2094 51.536H76.8814L75.6814 59.888C73.5694 59.888 71.8254 59.52 70.4494 58.784C69.0734 58.08 67.9694 57.12 67.1374 55.904C65.7614 57.44 64.1934 58.464 62.4334 58.976C60.6734 59.52 58.8494 59.792 56.9614 59.792ZM51.9694 46.88C52.1294 48.416 52.7534 49.648 53.8414 50.576C54.9614 51.472 56.3694 51.92 58.0654 51.92C59.6974 51.92 61.0574 51.488 62.1454 50.624C63.2334 49.728 64.1294 48.512 64.8334 46.976C64.8014 46.464 64.7854 45.936 64.7854 45.392C64.7854 44.272 64.8174 43.12 64.8814 41.936C64.9454 40.752 65.0254 39.584 65.1214 38.432C63.7774 37.92 62.3694 37.664 60.8974 37.664C59.1694 37.664 57.6174 38.016 56.2414 38.72C54.8974 39.392 53.8414 40.336 53.0734 41.552C52.3054 42.768 51.9214 44.176 51.9214 45.776C51.9214 45.968 51.9214 46.16 51.9214 46.352C51.9214 46.544 51.9374 46.72 51.9694 46.88ZM86.6501 59.456C86.6181 57.664 86.6021 55.84 86.6021 53.984C86.6021 52.096 86.6021 50.272 86.6021 48.512V37.136C85.2581 37.232 83.9621 37.376 82.7141 37.568C81.4981 37.76 80.3621 38 79.3061 38.288L78.2981 30.608C79.4501 30.352 80.7621 30.128 82.2341 29.936C83.7381 29.744 85.2901 29.6 86.8901 29.504C87.0821 27.744 87.4021 26.032 87.8501 24.368C88.3301 22.704 89.0021 21.216 89.8661 19.904C90.7301 18.56 91.8661 17.488 93.2741 16.688C94.6821 15.888 96.4261 15.488 98.5061 15.488C101.162 15.488 103.722 16.032 106.186 17.12L104.554 24.752C102.442 23.792 100.698 23.312 99.3221 23.312C97.8501 23.312 96.8261 23.84 96.2501 24.896C95.6741 25.92 95.3061 27.376 95.1461 29.264C96.8741 29.296 98.5061 29.376 100.042 29.504C101.61 29.6 102.97 29.728 104.122 29.888L103.354 37.424C102.234 37.232 100.922 37.088 99.4181 36.992C97.9461 36.864 96.3941 36.8 94.7621 36.8C94.6981 38.432 94.6501 40.032 94.6181 41.6C94.5861 43.136 94.5701 44.672 94.5701 46.208C94.5701 48.256 94.5861 50.368 94.6181 52.544C94.6821 54.688 94.7461 56.992 94.8101 59.456H86.6501ZM113.603 59.456C113.571 57.664 113.555 55.84 113.555 53.984C113.555 52.096 113.555 50.272 113.555 48.512V37.136C112.211 37.232 110.915 37.376 109.667 37.568C108.451 37.76 107.315 38 106.259 38.288L105.251 30.608C106.403 30.352 107.715 30.128 109.187 29.936C110.691 29.744 112.243 29.6 113.843 29.504C114.035 27.744 114.355 26.032 114.803 24.368C115.283 22.704 115.955 21.216 116.819 19.904C117.683 18.56 118.819 17.488 120.227 16.688C121.635 15.888 123.379 15.488 125.459 15.488C128.115 15.488 130.675 16.032 133.139 17.12L131.507 24.752C129.395 23.792 127.651 23.312 126.275 23.312C124.803 23.312 123.779 23.84 123.203 24.896C122.627 25.92 122.259 27.376 122.099 29.264C123.827 29.296 125.459 29.376 126.995 29.504C128.563 29.6 129.923 29.728 131.075 29.888L130.307 37.424C129.187 37.232 127.875 37.088 126.371 36.992C124.899 36.864 123.347 36.8 121.715 36.8C121.651 38.432 121.603 40.032 121.571 41.6C121.539 43.136 121.523 44.672 121.523 46.208C121.523 48.256 121.539 50.368 121.571 52.544C121.635 54.688 121.699 56.992 121.763 59.456H113.603Z" fill="black"/>
<path d="M193.24 52.543C195.712 48.0949 197.006 43.0889 197 38C197 21.432 183.568 8.00002 167 8.00002C161.912 7.99372 156.907 9.28765 152.459 11.759L150.26 9.56102C149.259 8.56212 147.903 8.00109 146.489 8.00109C145.075 8.00109 143.719 8.56212 142.718 9.56102L138.56 13.717C137.561 14.718 137 16.0744 137 17.4885C137 18.9027 137.561 20.2591 138.56 21.26L140.759 23.459C138.288 27.9066 136.994 32.9119 137 38C137 54.568 150.43 68 167 68C172.088 68.0065 177.094 66.7122 181.541 64.24L183.74 66.439C184.741 67.438 186.097 67.999 187.512 67.999C188.926 67.999 190.282 67.438 191.283 66.439L195.439 62.283C196.438 61.2821 196.999 59.9257 196.999 58.5115C196.999 57.0974 196.438 55.741 195.439 54.74L193.24 52.543ZM141.702 18.117C141.536 17.9499 141.442 17.7237 141.442 17.488C141.442 17.2523 141.536 17.0262 141.702 16.859L145.86 12.701C146.027 12.5346 146.253 12.4412 146.489 12.4412C146.724 12.4412 146.95 12.5346 147.117 12.701L148.672 14.257C146.645 15.825 144.825 17.6446 143.257 19.672L141.702 18.117ZM167 61.438C154.057 61.438 143.563 50.945 143.563 38C143.563 25.056 154.057 14.563 167 14.563C179.943 14.563 190.438 25.056 190.438 38C190.438 50.945 179.943 61.438 167 61.438ZM192.299 59.141L188.139 63.299C187.972 63.4651 187.746 63.5584 187.511 63.5584C187.276 63.5584 187.05 63.4651 186.883 63.299L185.328 61.742C187.356 60.1749 189.175 58.3556 190.742 56.328L192.299 57.883C192.465 58.0502 192.559 58.2763 192.559 58.512C192.559 58.7477 192.465 58.9739 192.299 59.141Z" fill="black"/>
<path d="M176.563 37.034C179.344 42.887 180.641 44.84 185.618 40.816C190.591 36.795 192.897 27.074 174.593 17.349C169.616 14.705 161.665 19.714 162.562 23.934C163.461 28.156 173.787 31.183 176.563 37.034ZM185.645 32.182C189.041 32.182 183.559 34.043 180.291 36.865C178.707 38.233 179.469 32.182 185.645 32.182ZM181.113 24.691C184.511 24.691 179.029 26.549 175.761 29.373C174.182 30.739 174.934 24.691 181.113 24.691ZM173.807 19.811C177.202 19.811 171.719 21.672 168.457 24.49C166.871 25.858 167.629 19.811 173.807 19.811ZM177.402 48.969C173.343 51.856 170.853 55.276 171.828 56.612C173.584 59.026 173.584 59.026 180.93 53.798C184.983 50.915 187.479 47.491 186.504 46.157C184.74 43.744 184.74 43.744 177.402 48.969ZM177.545 47.646C179.397 47.718 178.242 46 178.455 43.837C178.664 41.673 176.904 42.782 173.588 42.589C170.268 42.396 171.233 45.009 171.367 47.097C171.502 49.184 172.777 47.469 177.545 47.646Z" fill="black"/>
<path d="M165.371 49.256C164.239 48.551 163.282 47.588 162.43 46.502C163.198 46.813 164.131 46.992 165.097 47.176C165.516 47.256 165.935 47.336 166.331 47.426C166.764 47.526 167.099 47.572 167.384 47.572C168.938 47.572 169.108 46.254 169.21 45.465C169.302 44.752 169.429 43.774 170.069 42.483C170.405 41.801 170.289 41.286 170.132 40.973C169.72 40.145 168.744 39.959 167.51 39.725C166.822 39.594 166.042 39.446 165.266 39.178C164.704 38.984 164.261 38.894 163.87 38.894C162.372 38.894 161.999 40.15 161.726 41.066C161.568 41.597 161.389 42.201 161.036 42.863C160.86 43.187 160.741 43.5382 160.682 43.902C158.43 40.086 156.847 35.852 154.177 34.869C154.115 34.847 154.05 34.84 153.988 34.821C154.032 34.724 154.06 34.637 154.11 34.536C154.446 33.855 154.33 33.339 154.173 33.026C153.857 32.392 153.21 32.135 152.371 31.944C153.346 31.025 154.636 29.669 156.466 27.739C156.609 27.589 156.743 27.439 156.88 27.288C156.775 27.556 156.65 27.837 156.493 28.129C155.951 29.145 156.25 29.754 156.96 30.164C156.461 30.319 156.102 30.57 155.939 30.932C154.609 33.886 154.609 33.886 163.423 37.998C168.286 40.268 172.829 40.785 173.566 39.156C174.898 36.195 174.898 36.195 166.082 32.087C164.982 31.5711 163.85 31.1295 162.691 30.765C162.859 30.063 162.797 28.749 163.75 26.832C164.416 25.48 162.018 25.777 159.518 24.918C159.288 24.838 159.092 24.788 158.914 24.75C160.72 22.146 161.449 19.848 160.554 19.016C158.322 16.947 158.322 16.947 152.003 23.604C149.383 26.362 147.722 29.233 147.57 30.984C146.363 31.166 146.019 32.279 145.769 33.118C145.611 33.65 145.432 34.253 145.079 34.916C144.623 35.771 144.557 36.549 144.883 37.229C145.19 37.869 145.769 38.274 146.495 38.564C145.415 40.24 144.939 42.213 145.676 44.025C152.781 61.505 163.009 61.269 167.845 57.713C172.684 54.158 170.895 52.693 165.371 49.256ZM148.402 45.273C149.334 39.959 155.595 40.396 153.966 41.509C150.607 43.813 147.885 48.191 148.402 45.273ZM157.369 47.619C154.01 49.922 151.291 54.297 151.805 51.383C152.74 46.064 159 46.502 157.369 47.619ZM163.41 52.088C160.051 54.391 157.334 58.768 157.846 55.854C158.783 50.537 165.039 50.975 163.41 52.088Z" fill="black"/>
</svg>
