<svg width="17" height="11" viewBox="0 0 17 11" fill="none" xmlns="http://www.w3.org/2000/svg">
<path d="M14.11 1.42049L8.49544 7.03504L2.88089 1.42049C2.74692 1.28652 2.58787 1.18025 2.41283 1.10775C2.23779 1.03524 2.05019 0.997925 1.86072 0.997925C1.67126 0.997925 1.48365 1.03524 1.30861 1.10775C1.13357 1.18025 0.974523 1.28652 0.840552 1.42049C0.706582 1.55446 0.600311 1.71351 0.527806 1.88855C0.455302 2.06359 0.417984 2.2512 0.417984 2.44066C0.417984 2.63013 0.455302 2.81773 0.527806 2.99277C0.600311 3.16782 0.706582 3.32686 0.840552 3.46083L7.48251 10.1028C8.04686 10.6671 8.9585 10.6671 9.52285 10.1028L16.1648 3.46083C16.2989 3.32696 16.4054 3.16795 16.478 2.99289C16.5506 2.81784 16.588 2.63018 16.588 2.44066C16.588 2.25115 16.5506 2.06349 16.478 1.88843C16.4054 1.71338 16.2989 1.55437 16.1648 1.42049C15.6005 0.870615 14.6743 0.856144 14.11 1.42049Z" fill="black"/>
</svg>
